<?xml version="1.0" encoding="UTF-8"?>
<!DOCTYPE svg PUBLIC "-//W3C//DTD SVG 1.1//EN" "http://www.w3.org/Graphics/SVG/1.1/DTD/svg11.dtd">
<!-- Creator: CorelDRAW 2018 (64 Bit) -->
<svg xmlns="http://www.w3.org/2000/svg" xml:space="preserve" width="128.863mm" height="43.9418mm" version="1.1" style="shape-rendering:geometricPrecision; text-rendering:geometricPrecision; image-rendering:optimizeQuality; fill-rule:evenodd; clip-rule:evenodd"
viewBox="0 0 12886.26 4394.18"
 xmlns:xlink="http://www.w3.org/1999/xlink">
 <defs>
  <style type="text/css">
   <![CDATA[
    .fil1 {fill:black}
    .fil5 {fill:#D7211D}
    .fil4 {fill:#DA251C;fill-rule:nonzero}
    .fil3 {fill:#F6C500;fill-rule:nonzero}
    .fil2 {fill:white;fill-rule:nonzero}
    .fil0 {fill:url(#id0)}
   ]]>
  </style>
  <radialGradient id="id0" gradientUnits="userSpaceOnUse" gradientTransform="matrix(1.06383 -0 -0 1.06383 -170 -141)" cx="2667.27" cy="2204.01" r="1865.31" fx="2667.27" fy="2204.01">
   <stop offset="0" style="stop-opacity:1; stop-color:#FEFEFE"/>
   <stop offset="0.439216" style="stop-opacity:1; stop-color:#F9E597"/>
   <stop offset="1" style="stop-opacity:1; stop-color:#F5CD30"/>
  </radialGradient>
 </defs>
 <g id="Capa_x0020_1">
  <metadata id="CorelCorpID_0Corel-Layer"/>
  <circle class="fil0" cx="2537.74" cy="2160.83" r="2158.94"/>
  <path class="fil1" d="M4762.19 1022.77l6942.72 0c649,0 1180,531 1180,1180l0 1174.8 -8122.72 0 0 -2354.8z"/>
  <path class="fil2" d="M11843.51 2058.9l126.2 0c19.23,0 35.46,3.57 48.68,10.71 13.23,7.15 23.74,15.48 31.55,25 7.82,9.52 13.22,20.24 16.23,32.14 3,11.9 4.5,22.02 4.5,30.35l0 99.99 259.62 0 0 -148.2c0,-26.18 -4.8,-54.45 -14.42,-84.8 -9.61,-30.36 -25.84,-58.63 -48.68,-84.81 -22.83,-26.19 -52.28,-47.61 -88.34,-64.28 -36.06,-16.66 -80.53,-24.99 -133.42,-24.99l-461.55 0 0 992.7 259.63 0 0 -783.81z"/>
  <path class="fil2" d="M11143.96 2633.81l-270.43 0c-31.26,0 -56.5,-5.06 -75.73,-15.17 -19.24,-10.12 -33.96,-22.32 -44.18,-36.6 -10.21,-14.29 -17.12,-29.76 -20.73,-46.43 -3.6,-16.66 -5.4,-32.13 -5.4,-46.42l0 -639.18 -259.63 0 0 690.96c0,51.18 9.92,95.52 29.75,133.02 19.83,37.49 45.67,68.74 77.53,93.73 31.85,25 67,43.74 105.46,56.24 38.47,12.5 75.73,18.75 111.79,18.75l611.2 0 0 -992.7 -259.63 0 0 783.8z"/>
  <path class="fil2" d="M9613.27 2444.56l279.46 0c16.82,0 33.35,1.19 49.58,3.57 16.23,2.38 30.95,7.14 44.17,14.28 13.22,7.14 23.74,17.26 31.54,30.35 7.82,13.1 11.73,30.36 11.73,51.78 0,21.43 -3.91,38.69 -11.73,51.78 -7.8,13.09 -18.32,23.21 -31.54,30.35 -13.22,7.14 -27.94,11.9 -44.17,14.29 -16.23,2.38 -32.76,3.57 -49.58,3.57l-589.56 0 0 198.18 692.32 0c100.96,0 177.89,-27.67 230.77,-83.02 52.9,-55.35 79.33,-127.07 79.33,-215.15 0,-42.85 -6.9,-82.72 -20.73,-119.62 -13.82,-36.9 -33.65,-68.44 -59.49,-94.63 -25.85,-26.19 -58,-46.72 -96.46,-61.6 -38.46,-14.88 -82.94,-22.32 -133.42,-22.32l-279.46 0c-16.82,0 -33.35,-1.19 -49.58,-3.57 -16.23,-2.38 -30.95,-6.84 -44.17,-13.39 -13.22,-6.55 -23.74,-16.37 -31.54,-29.46 -7.82,-13.09 -11.73,-30.35 -11.73,-51.78 0,-21.42 3.91,-38.68 11.73,-51.77 7.8,-13.1 18.32,-23.21 31.54,-30.36 13.22,-7.14 27.94,-11.9 44.17,-14.28 16.23,-2.38 32.76,-3.57 49.58,-3.57l535.48 0 0 -198.18 -638.24 0c-50.48,0 -94.96,7.43 -133.42,22.31 -38.46,14.88 -70.61,35.41 -96.46,61.6 -25.84,26.19 -45.67,57.73 -59.49,94.63 -13.83,36.9 -20.73,76.77 -20.73,119.62 0,86.9 26.43,158.02 79.33,213.36 52.88,55.35 129.81,83.03 230.77,83.03z"/>
  <polygon class="fil2" points="9184.81,2842.71 9184.81,1850.01 8837.36,1850.01 8837.36,2842.71 "/>
  <polygon class="fil2" points="7619.21,1850.01 8041.1,2842.71 8345.79,2842.71 8767.69,1850.01 8472,1850.01 8197.96,2546.33 8188.94,2546.33 7914.89,1850.01 "/>
  <path class="fil2" d="M7372.22 2246.37l-432.71 0c-50.48,0 -94.96,7.44 -133.42,22.32 -38.46,14.88 -70.61,35.41 -96.45,61.6 -25.85,26.19 -45.68,57.73 -59.5,94.63 -13.83,36.9 -20.73,76.77 -20.73,119.62 0,88.08 26.43,159.8 79.33,215.15 52.88,55.35 129.81,83.02 230.77,83.02l692.33 0 0 -640.97c0,-65.47 -11.43,-120.82 -34.26,-166.05 -22.84,-45.23 -51.69,-81.53 -86.54,-108.91 -34.86,-27.38 -72.72,-47.02 -113.59,-58.92 -40.87,-11.9 -79.33,-17.85 -115.38,-17.85l-582.35 0 0 198.18 504.82 0c33.66,0 61.3,4.46 82.93,13.39 21.64,8.93 38.77,20.53 51.39,34.82 12.61,14.28 21.33,30.94 26.15,49.99 4.8,19.04 7.21,38.09 7.21,57.13l0 42.85zm0 398.16l-333.55 0c-16.82,0 -33.05,-1.19 -48.68,-3.57 -15.63,-2.39 -29.75,-7.15 -42.36,-14.29 -12.63,-7.14 -22.85,-17.26 -30.66,-30.35 -7.81,-13.09 -11.72,-30.35 -11.72,-51.78 0,-21.42 3.91,-38.68 11.72,-51.78 7.81,-13.09 18.03,-23.21 30.66,-30.35 12.61,-7.14 26.73,-11.9 42.36,-14.28 15.63,-2.38 31.86,-3.57 48.68,-3.57l333.55 0 0 199.97z"/>
  <polygon class="fil2" points="6494.18,2842.71 6494.18,1723.87 6234.55,1723.87 6234.55,2842.71 "/>
  <path class="fil3" d="M12268.36 1453.64l-6681.06 0c-114.16,0 -209.73,16.66 -286.66,49.99 -76.93,33.33 -138.52,79.45 -184.8,138.37 -46.28,58.92 -79.03,129.15 -98.27,210.68 -19.22,81.54 -28.84,171.11 -28.84,268.71l0 721.32 295.68 0 0 -580.27 784.29 0 0 -228.53 -784.29 0c0,-72.61 11.12,-131.53 33.36,-176.76 22.23,-45.23 50.48,-80.05 84.74,-104.45 34.25,-24.4 72.72,-40.78 115.38,-49.1 42.66,-8.33 85.04,-12.5 127.11,-12.5l6623.36 0 0 -237.46z"/>
  <polygon class="fil4" points="9184.8,1764.43 9184.8,1420.47 8861.37,1420.47 8861.37,1764.43 "/>
  <path class="fil5" d="M1486.14 3913.22c-164.49,56.04 -167.2,62.37 -9.94,27.11 1201.29,-265.5 1929.05,-1026.36 2301.13,-2189.96 18.08,-56.03 30.73,-103.94 29.83,-105.74 -1.81,-1.81 -28.92,55.13 -60.56,125.63 -463.28,1033.33 -1169.89,1776.08 -2260.46,2142.96z"/>
  <path class="fil1" d="M1834.12 3988.24c-154.55,55.13 -128.34,56.03 81.34,2.71 1056.99,-271.23 1666.53,-954.61 2010.1,-1987.51 25.31,-76.82 45.19,-140.09 43.39,-141.9 -1.81,-1.81 -16.28,29.83 -32.54,71.4 -393.34,976.3 -1102.44,1695.9 -2102.29,2055.3z"/>
  <path class="fil1" d="M526.39 3175.8c-231.58,-170.96 -387.34,-392.12 -436.7,-682.41 -76.73,-437.36 109.68,-583.24 388.16,-898.86 4.61,-21.3 11.77,-63.13 17.01,-84.19 -102.26,77.69 -326.58,303.69 -386.54,419.49 -130.41,252.28 -139.36,599.41 -38.95,883.68 57.58,162.58 170.18,336.12 285.33,440.57 94.19,85.54 309.51,291.49 425.72,337.19 282.26,-0.58 -196.24,-306.84 -254.03,-415.47z"/>
  <path class="fil1" d="M2858.97 2543.18c-112.61,203.02 -209.98,331.06 -370.84,490.28 -151.56,149.95 -243.84,218.18 -407.25,299.05 -364.56,181.37 -889.1,222.17 -1267.46,74.14 -28.79,-10.95 -108.38,-130.57 -186.27,-281.36 -204.05,-394.25 -276.86,-833.14 -209.98,-1275.4 24.56,-165.95 41.49,-220.71 70.28,-234.18 245.98,-118.75 702.76,11.09 928.79,139.84 380.3,216.22 861.43,683.69 1181.95,1014.24 11.86,0 85.52,-143.21 121.08,-233.35 248.21,-707.74 -336.14,-921.56 -325.97,-938.42 124,-3.25 773.36,-12.16 795.02,7.58 43.66,38.97 -289.53,865.98 -329.35,937.58zm-213.36 -19.37c-3.39,0 -82.97,-76.66 -177.81,-171 -48.9,-49.09 -92.53,-94.08 -122.65,-126.41 -291.89,-280.12 -609.35,-536.57 -997.48,-673.03 -240.14,-82.76 -523.38,-95.92 -768.78,-26.96 -46.57,13.47 -74.51,17.69 -79.59,12.63 -19.47,-19.37 97.37,-291.47 189.66,-446.47 57.27,-95.21 121.58,-185.35 192.15,-269.8 -150.19,158.18 -260.92,311.24 -348.47,480.37l-24.44 50.27c-91.05,237.87 -140.94,496.1 -140.94,765.99 0,457.79 456.5,1602.58 623.11,1497.01 29.48,-18.13 454.81,92.17 1026.16,-187.02 215.05,-105.3 371.69,-214.81 550.33,-387.5 447.66,-431.87 605.6,-863.63 800.11,-1432.09 2.67,-16.66 494.29,-16.94 535.94,6.74 102.03,50.75 4.59,210.43 30.48,219.03 30.48,10.11 38.1,-5.9 97.37,-203.02 33.02,-109.51 59.26,-199.65 58.42,-201.33l-661.25 -10.11c-2.54,-4.22 22.01,-94.35 54.18,-201.34 103.9,-343.88 119.24,-533.13 419.4,-730.7 -15.83,-13.52 -31.86,-26.82 -48.09,-39.88 -310.88,204.31 -442.98,444.17 -549.11,789.96 -4.19,13.5 -55.02,190.65 -67.15,185.41 -409.52,8.14 -818.71,7.22 -1228.26,9.14 -37,51.63 -41.88,103.5 -71.56,152.86l63.12 5.57c518.65,46.57 915.02,387.17 645.15,931.68z"/>
  <path class="fil1" d="M4282.21 615.78c-16.93,69.92 -16.09,73.29 10.16,69.92 21.17,-2.53 24.55,-8.42 59.27,-133.1l76.2 -301.58 -25.41 -5.06c-117.68,-23.58 -297.18,37.91 -498.69,170.17l-50.33 33.07c16.22,13.06 32.25,26.36 48.09,39.88l0.28 -0.19c13.67,-24.53 462.32,-210.57 380.43,126.89z"/>
  <path class="fil1" d="M289.99 2233.35c0,1192.35 966.59,2158.94 2158.94,2158.94 491.88,0 945.35,-164.5 1308.38,-441.48 -341.66,226.77 -751.6,358.87 -1192.39,358.87 -1008.71,0 -1855.85,-691.78 -2092.86,-1626.8 -50.59,-182.56 -77.62,-374.91 -77.62,-573.57 0,-269.89 49.89,-528.12 140.94,-765.99l24.44 -50.27c40.11,-77.48 85.08,-151.59 136.49,-224.37 143.35,-247.01 334.27,-463 560.23,-635.4 -582.53,386.65 -966.55,1048.51 -966.55,1800.07z"/>
 </g>
</svg>
